<svg width="259" height="251" fill="none" xmlns="http://www.w3.org/2000/svg"><path d="M129.281 99.734c2.244 0 4.229.863 5.955 2.589l120.661 120.661c1.726 1.726 2.589 3.711 2.589 5.955 0 2.245-.863 4.23-2.589 5.956l-12.947 12.946c-1.726 1.726-3.711 2.59-5.955 2.59s-4.229-.864-5.955-2.59L129.281 146.082 27.521 247.841c-1.725 1.726-3.71 2.59-5.954 2.59-2.244 0-4.23-.864-5.956-2.59L2.665 234.895c-1.726-1.726-2.59-3.711-2.59-5.956 0-2.244.864-4.229 2.59-5.955l120.66-120.661c1.727-1.726 3.712-2.589 5.956-2.589Zm0-99.428c2.244 0 4.229.863 5.955 2.589l120.661 120.661c1.726 1.726 2.589 3.711 2.589 5.955s-.863 4.229-2.589 5.955l-12.947 12.947c-1.726 1.726-3.711 2.589-5.955 2.589s-4.229-.863-5.955-2.589L129.281 46.653l-101.76 101.76c-1.725 1.726-3.71 2.589-5.954 2.589-2.244 0-4.23-.863-5.956-2.589L2.665 135.466c-1.726-1.726-2.59-3.711-2.59-5.955s.864-4.229 2.59-5.955L123.325 2.895c1.727-1.726 3.712-2.59 5.956-2.59Z" fill="#000"/></svg>