<svg width="65" height="65" fill="none" xmlns="http://www.w3.org/2000/svg"><path d="M29.25 32.5h-7.085a46.023 46.023 0 0 1 7.085 5.46V32.5Zm-13-3.25C17.128 12.61 23.953 0 32.5 0c8.645 0 15.502 12.805 16.25 29.64C53.625 27.398 59.053 26 65 26c-18.688 8.352-12.188 39-32.5 39C13 65 19.273 34.352 0 26c5.915 0 11.375 1.3 16.25 3.25Zm13 0v-6.5h-8.97l-.683 6.5h9.653Zm0-9.75V13h-6.337c-.813 1.95-1.463 4.128-2.015 6.5h8.352Zm0-9.75V4.225c-1.788 1.073-3.413 2.99-4.875 5.525h4.875Zm3.25-6.5v6.5h3.25V13H32.5v6.5H39v3.25h-6.5v6.5h9.75v3.25H32.5V39H39v3.25h-5.752c3.867 4.712 6.24 9.75 6.792 13.748 3.218-5.428 5.33-14.268 5.46-24.278-.195-15.47-6.078-28.47-13-28.47Z" fill="#A61D1D"/></svg>