<svg width="57" height="46" fill="none" xmlns="http://www.w3.org/2000/svg"><path d="M2 33.235c0-1.593.352-3.173 1.287-4.462C6.035 24.976 13.489 17.224 28.5 17.224c15.012 0 22.465 7.753 25.214 11.547.934 1.29 1.286 2.87 1.286 4.463a10.49 10.49 0 0 1-10.49 10.49H12.49A10.49 10.49 0 0 1 2 33.235v0Z" stroke="#A61D1D" stroke-width="3.706" stroke-linecap="round" stroke-linejoin="round"/><path d="M49.7 24.437c-4.1-3.529-10.854-7.212-21.2-7.212s-17.1 3.682-21.2 7.212M12.6 2.65v5.3-5.3Zm2.65 17.225v5.3-5.3ZM44.4 2.65v5.3-5.3Zm-2.65 17.225v5.3-5.3ZM28.5 0v7.95V0Zm0 17.225v10.6-10.6Z" stroke="#A61D1D" stroke-width="3.706" stroke-linecap="round"/></svg>