<svg width="65" height="65" viewBox="0 0 65 65" fill="none" xmlns="http://www.w3.org/2000/svg">
<path d="M29.25 32.5H22.165C24.765 34.125 27.1375 35.9775 29.25 37.96V32.5ZM16.25 29.25C17.1275 12.61 23.9525 0 32.5 0C41.145 0 48.0025 12.805 48.75 29.64C53.625 27.3975 59.0525 26 65 26C46.3125 34.3525 52.8125 65 32.5 65C13 65 19.2725 34.3525 0 26C5.915 26 11.375 27.3 16.25 29.25ZM29.25 29.25V22.75H20.28L19.5975 29.25H29.25ZM29.25 19.5V13H22.9125C22.1 14.95 21.45 17.1275 20.8975 19.5H29.25ZM29.25 9.75V4.225C27.4625 5.2975 25.8375 7.215 24.375 9.75H29.25ZM32.5 3.25V9.75H35.75V13H32.5V19.5H39V22.75H32.5V29.25H42.25V32.5H32.5V39H39V42.25H33.2475C37.115 46.9625 39.4875 52 40.04 55.9975C43.2575 50.57 45.37 41.73 45.5 31.72C45.305 16.25 39.4225 3.25 32.5 3.25Z" fill="#A61D1D"/>
</svg>
