<svg width="67" height="44" fill="none" xmlns="http://www.w3.org/2000/svg"><path d="M35.531 9.813c6.438 1.43 11.953 6.13 15.273 8.605a32.764 32.764 0 0 1 3.023-2.295c4.616-3.113 10.142-3.498 10.142-3.498s-1.444 6.039-5.251 9.355c3.807 3.318 5.25 9.356 5.25 9.356s-5.526-.385-10.142-3.498a32.506 32.506 0 0 1-2.997-2.274c-3.313 2.477-8.854 7.188-15.298 8.623l2.032 6.563c-5.006-.782-10.012-4.161-12.026-5.654C9.126 34.422 3.032 24.696 3.032 22c0-2.578 6.094-12.422 22.457-13.093 1.98-1.464 7.027-4.87 12.075-5.657L35.53 9.813Z" stroke="#A61D1D" stroke-width="5" stroke-linejoin="round"/><path d="M13.188 21.999c-1.122 0-2.032-.84-2.032-1.875 0-1.036.91-1.875 2.031-1.875 1.122 0 2.032.84 2.032 1.875 0 1.035-.91 1.875-2.031 1.875Z" fill="#A61D1D"/><path d="M17.965 33.719c2.238-3.56 3.417-7.603 3.417-11.719s-1.179-8.159-3.417-11.719" stroke="#A61D1D" stroke-width="5" stroke-miterlimit="20" stroke-linecap="round"/></svg>