<svg width="72" height="73" fill="none" xmlns="http://www.w3.org/2000/svg"><path d="m41.858 22.059 6.963-6.967a7.084 7.084 0 1 1 12.09-5.01 7.083 7.083 0 1 1-5.004 12.09l-6.445 6.45M14.53 58.234C24.212 67.915 35.423 72.4 39.573 68.25c4.149-4.15-.336-15.361-10.017-25.043C19.874 33.526 8.662 29.041 4.513 33.19c-4.15 4.15.335 15.361 10.017 25.043Z" stroke="#A61D1D" stroke-width="5" stroke-linecap="round" stroke-linejoin="round"/><path d="M39.574 68.252c13.83-13.833 17.194-32.894 7.511-42.573-9.679-9.683-28.74-6.318-42.57 7.512m15.668 15.848 3.542 3.542-3.542-3.542Z" stroke="#A61D1D" stroke-width="5" stroke-linecap="round" stroke-linejoin="round"/></svg>